<svg xmlns="http://www.w3.org/2000/svg" xmlns:svgjs="http://svgjs.com/svgjs" xmlns:xlink="http://www.w3.org/1999/xlink" id="SvgjsSvg1040" width="288" height="288" version="1.1"><g id="SvgjsG1042"><svg xmlns="http://www.w3.org/2000/svg" xmlns:svgjs="http://svgjs.com/svgjs" xmlns:xlink="http://www.w3.org/1999/xlink" width="288" height="288"><svg xmlns="http://www.w3.org/2000/svg" width="288" height="288" enable-background="new 0 0 1024 1024" viewBox="0 0 1024 1280"><path fill="#fdba49" d="M551.7,74.5c1-21.6-19.1-40-40-40c-25.9,0-51.5,2.5-77.1,6.4c-48.2,7.3-94.8,23.1-138.3,44.8 c-42.3,21.1-81.5,49.3-115.6,81.9c-34,32.6-63.6,70.8-86.5,112c-23.3,42-40.8,87.9-50.3,135C34,463.7,31,514.2,36.8,564 c3,25.9,7.4,51.6,14.4,76.7c6.9,24.8,16.2,48.9,26.8,72.3c19.5,43.2,46.4,83,77.9,118.5c31.3,35.3,68.5,65.9,108.8,90.3 c40.9,24.8,86.2,43.6,132.7,54.9c48.3,11.8,99.1,16.3,148.7,12.5c48.9-3.7,97.2-14.1,142.6-32.7c23.7-9.7,46.7-20.5,68.6-33.7 c21.5-12.9,41.8-27.8,61.1-43.7c36.5-30,68-66.2,94-105.6c26.4-40,46.6-84.8,59.6-130.9c13.5-47.7,19.6-98.2,17.6-147.7 c-1.9-49.1-10.9-98.3-27.9-144.4c-16.5-44.9-38.8-87.2-67.9-125.2c-15.3-19.9-31.3-39-49.4-56.4c-18.1-17.5-37.9-33.5-58.4-48.1 c-38.8-27.6-82.5-48.9-127.8-63.6C611.2,42,561.3,34.5,512,34.4c-22.4,0-39,18.4-40,40s19.1,40,40,40c19.5,0,39,1.3,58.3,3.8 c-3.5-0.4-7.1-0.9-10.6-1.4c38.4,5.1,75.9,15.3,111.6,30.3c-3.2-1.3-6.4-2.7-9.6-4c34.8,14.8,67.6,33.9,97.6,57 c-2.7-2.1-5.4-4.2-8.1-6.3c29.7,23,56.4,49.7,79.4,79.4c-2.1-2.7-4.2-5.4-6.3-8.1c23.1,30,42.3,62.8,57,97.6 c-1.3-3.2-2.7-6.4-4-9.6c15,35.7,25.1,73.2,30.3,111.6c-0.4-3.5-0.9-7.1-1.4-10.6c5.1,38.7,5.1,77.9,0,116.6 c0.4-3.5,0.9-7.1,1.4-10.6c-5.1,38.4-15.3,75.9-30.3,111.6c1.3-3.2,2.7-6.4,4-9.6c-14.8,34.8-33.9,67.6-57,97.6 c2.1-2.7,4.2-5.4,6.3-8.1c-23,29.7-49.7,56.4-79.4,79.4c2.7-2.1,5.4-4.2,8.1-6.3c-30,23.1-62.8,42.3-97.6,57 c3.2-1.3,6.4-2.7,9.6-4c-35.7,15-73.2,25.1-111.6,30.3c3.5-0.4,7.1-0.9,10.6-1.4c-38.7,5.1-77.9,5.1-116.6,0 c3.5,0.4,7.1,0.9,10.6,1.4c-38.4-5.1-75.9-15.3-111.6-30.3c3.2,1.3,6.4,2.7,9.6,4c-34.8-14.8-67.6-33.9-97.6-57 c2.7,2.1,5.4,4.2,8.1,6.3c-29.7-23-56.4-49.7-79.4-79.4c2.1,2.7,4.2,5.4,6.3,8.1c-23.1-30-42.3-62.8-57-97.6 c1.3,3.2,2.7,6.4,4,9.6c-15-35.7-25.1-73.2-30.3-111.6c0.4,3.5,0.9,7.1,1.4,10.6c-5.1-38.7-5.1-77.9,0-116.6 c-0.4,3.5-0.9,7.1-1.4,10.6c5.1-38.4,15.3-75.9,30.3-111.6c-1.3,3.2-2.7,6.4-4,9.6c14.8-34.8,33.9-67.6,57-97.6 c-2.1,2.7-4.2,5.4-6.3,8.1c23-29.7,49.7-56.4,79.4-79.4c-2.7,2.1-5.4,4.2-8.1,6.3c30-23.1,62.8-42.3,97.6-57 c-3.2,1.3-6.4,2.7-9.6,4c35.7-15,73.2-25.1,111.6-30.3c-3.5,0.4-7.1,0.9-10.6,1.4c19.3-2.5,38.8-3.8,58.3-3.8 C534.4,114.4,551,96.1,551.7,74.5z" class="color000 svgShape colorfbda49"/><path fill="#fdba49" d="M602.9,344.5c15.8-15.8,14.7-40.6-0.2-56.5c-14.6-15.9-41.8-14.8-56.6,0c-0.4,0.4-0.9,0.9-1.3,1.3 c-25.8,25.4-51.1,51.1-76.7,76.7c-30.7,30.7-61.4,61.4-92.1,92.1c-2.8,2.8-5.7,5.6-8.5,8.5c-20.3,20.7-24.3,50.2-11.7,76 c5.8,11.9,18,21.9,27.3,31.2c32.6,32.6,65.3,65.3,97.9,97.9c21.7,21.7,43.5,43.5,65.2,65.2c15.8,15.8,40.6,14.7,56.6,0 c15.9-14.6,14.8-41.8,0-56.6c-7.4-7.4-14.9-14.9-22.3-22.3c-32.3-32.3-64.7-64.7-97.1-97.1c-14.2-14.2-28.4-28.4-42.6-42.6 c-6.3-6.4-13.3-12.5-19.1-19.4c2.1,2.7,4.2,5.4,6.3,8.1c-1.4-1.9-2.6-3.9-3.5-6.1c1.3,3.2,2.7,6.4,4,9.6 c-0.6-1.7-1.1-3.5-1.4-5.3c0.4,3.5,0.9,7.1,1.4,10.6c-0.3-2.3-0.3-4.5,0-6.8c-0.4,3.5-0.9,7.1-1.4,10.6c0.3-1.8,0.8-3.5,1.4-5.3 c-1.3,3.2-2.7,6.4-4,9.6c1-2.2,2.1-4.2,3.5-6.1c-2.1,2.7-4.2,5.4-6.3,8.1c7-8.4,15.6-15.8,23.3-23.5 c32.3-32.3,64.5-64.5,96.8-96.8C562.2,385.2,582.5,364.9,602.9,344.5L602.9,344.5z" class="color000 svgShape colorfbda49"/></svg></svg></g></svg>