<svg xmlns="http://www.w3.org/2000/svg" xmlns:svgjs="http://svgjs.com/svgjs" xmlns:xlink="http://www.w3.org/1999/xlink" id="SvgjsSvg1086" width="288" height="288" version="1.1"><g id="SvgjsG1088"><svg xmlns="http://www.w3.org/2000/svg" width="288" height="288" enable-background="new 0 0 1024 1024" viewBox="0 0 1024 1280"><path fill="#fff" d="M833.5,418.7c0,13.4,0,26.8,0,40.2c0,32.2,0,64.4,0,96.6c0,39,0,77.9,0,116.9c0,33.7,0,67.4,0,101.1 c0,16.3-0.4,32.7,0,49c0,0.2,0,0.5,0,0.7c13.3-13.3,26.7-26.7,40-40c-6.5,0-12.9,0-19.4,0c-17.5,0-35,0-52.5,0 c-25.8,0-51.7,0-77.5,0c-31.7,0-63.3,0-95,0c-34.5,0-69.1,0-103.6,0c-35,0-70,0-105.1,0c-32.5,0-65,0-97.5,0c-27.5,0-55,0-82.4,0 c-19.9,0-39.7,0-59.6,0c-9.4,0-18.8-0.2-28.1,0c-0.4,0-0.8,0-1.2,0c13.3,13.3,26.7,26.7,40,40c0-14.8,0-29.6,0-44.4 c0-35,0-70,0-105c0-41.2,0-82.4,0-123.6c0-32.9,0-65.8,0-98.7c0-19.6-0.5-39.3,0.9-58.9c0.5-7.1,1.3-14.3,2.2-21.3 c-0.5,3.5-1,7.1-1.4,10.6c4.3-31.8,12.7-62.8,25.2-92.4c-1.3,3.2-2.7,6.4-4,9.6c12.1-28.5,27.8-55.3,46.7-79.8 c-2.1,2.7-4.2,5.4-6.3,8.1c19.1-24.7,41.3-46.8,66-66c-2.7,2.1-5.4,4.2-8.1,6.3c24.5-18.9,51.3-34.6,79.8-46.7 c-3.2,1.3-6.4,2.7-9.6,4c29.5-12.5,60.6-20.9,92.4-25.2c-3.5,0.5-7.1,1-10.6,1.4c31.4-4.1,63.3-4.1,94.7,0 c-3.5-0.5-7.1-1-10.6-1.4c31.7,4.3,62.6,12.7,92,25c-3.2-1.3-6.4-2.7-9.6-4c28.8,12.2,55.9,28,80.7,47.1 c-2.7-2.1-5.4-4.2-8.1-6.3c24.5,19,46.6,41,65.6,65.5c-2.1-2.7-4.2-5.4-6.3-8.1c19.4,25.2,35.5,52.6,47.9,81.9 c-1.3-3.2-2.7-6.4-4-9.6c12.1,28.9,20.4,59.3,24.6,90.4c-0.5-3.5-1-7.1-1.4-10.6C832.4,387,833.5,402.8,833.5,418.7 c0,20.9,18.4,41,40,40c21.6-1,40.1-17.6,40-40c-0.2-78.3-23.7-156.9-67.9-221.7C802.5,133.7,742.5,82,671.7,51.9 c-19.3-8.2-38.7-15.5-59-20.7c-20.6-5.3-41.7-8.7-62.9-10.9c-36.7-3.9-73.6-1.6-109.9,4.7c-33.4,5.8-65.4,16.8-96.2,30.8 c-30.2,13.7-57.6,31.8-83.5,52.5c-25.9,20.6-48,44.6-68.1,70.8c-18.4,24-34,50.2-45.9,78c-13.5,31.3-23.9,63.2-29.1,97 c-3.4,22.3-5.5,44.6-5.5,67.2c0,23.5,0,47,0,70.5c0,42.3,0,84.5,0,126.8c0,42.5,0,84.9,0,127.4c0,24.7,0,49.3,0,74 c0,1.2,0,2.3,0,3.5c0,21.6,18.3,40,40,40c6.5,0,12.9,0,19.4,0c17.5,0,35,0,52.5,0c25.8,0,51.7,0,77.5,0c31.7,0,63.3,0,95,0 c34.5,0,69.1,0,103.6,0c35,0,70,0,105.1,0c32.5,0,65,0,97.5,0c27.5,0,55,0,82.4,0c19.9,0,39.7,0,59.6,0c9.4,0,18.7,0.1,28.1,0 c0.4,0,0.8,0,1.2,0c21.6,0,40-18.3,40-40c0-13.4,0-26.8,0-40.2c0-32.2,0-64.4,0-96.6c0-39,0-77.9,0-116.9c0-33.7,0-67.4,0-101.1 c0-16.3,0.3-32.7,0-49c0-0.2,0-0.5,0-0.7c0-20.9-18.4-41-40-40C851.8,379.7,833.5,396.3,833.5,418.7z" class="color000 svgShape"/><path fill="#fff" d="M151 783.3c-23.5 0-47.1 0-70.6 0-20.9 0-41 18.4-40 40 1 21.7 17.6 40 40 40 23.5 0 47.1 0 70.6 0 20.9 0 41-18.4 40-40C190.1 801.6 173.5 783.3 151 783.3L151 783.3zM943.6 783.3c-23.5 0-47.1 0-70.6 0-20.9 0-41 18.4-40 40 1 21.7 17.6 40 40 40 23.5 0 47.1 0 70.6 0 20.9 0 41-18.4 40-40C982.6 801.6 966 783.3 943.6 783.3L943.6 783.3zM615 823.3c-.1 6.5-.5 12.9-1.4 19.3.5-3.5 1-7.1 1.4-10.6-1.8 12.4-5.1 24.5-10 36.1 1.3-3.2 2.7-6.4 4-9.6-4.9 11.3-11.1 21.8-18.6 31.6 2.1-2.7 4.2-5.4 6.3-8.1-7.5 9.6-16.2 18.2-25.8 25.7 2.7-2.1 5.4-4.2 8.1-6.3-9.8 7.5-20.4 13.6-31.7 18.5 3.2-1.3 6.4-2.7 9.6-4-11.6 4.8-23.7 8.1-36.2 9.9 3.5-.5 7.1-1 10.6-1.4-12.9 1.7-25.8 1.7-38.7 0 3.5.5 7.1 1 10.6 1.4-12.5-1.7-24.6-5-36.2-9.9 3.2 1.3 6.4 2.7 9.6 4-11.3-4.8-21.9-11-31.7-18.5 2.7 2.1 5.4 4.2 8.1 6.3-9.6-7.5-18.3-16.1-25.8-25.7 2.1 2.7 4.2 5.4 6.3 8.1-7.5-9.7-13.7-20.3-18.6-31.6 1.3 3.2 2.7 6.4 4 9.6-4.9-11.6-8.2-23.7-10-36.1.5 3.5 1 7.1 1.4 10.6-.9-6.4-1.3-12.9-1.4-19.3-13.3 13.3-26.7 26.7-40 40 32.4 0 64.8 0 97.2 0 51.2 0 102.4 0 153.5 0 11.7 0 23.4 0 35.2 0 20.9 0 41-18.4 40-40-1-21.7-17.6-40-40-40-32.4 0-64.8 0-97.2 0-51.2 0-102.4 0-153.5 0-11.7 0-23.4 0-35.2 0-21.5 0-40.2 18.3-40 40 .3 36.2 11 73.5 32.3 103.1 12.5 17.4 26.3 31.3 43.3 44.2 14.4 10.9 30.4 18.7 47.4 24.9 34.5 12.7 74.6 13.3 109.8 3.3 33.8-9.6 66.1-29.5 88.6-56.6 14.9-18 25.7-36.5 34-58.3 7.2-19.1 10.4-40.2 10.6-60.6.2-20.9-18.5-41-40-40C633.1 784.3 615.1 800.9 615 823.3z" class="color000 svgShape"/></svg></g></svg>