<svg xmlns="http://www.w3.org/2000/svg" xmlns:svgjs="http://svgjs.com/svgjs" xmlns:xlink="http://www.w3.org/1999/xlink" id="SvgjsSvg1067" width="288" height="288" version="1.1"><g id="SvgjsG1069"><svg xmlns="http://www.w3.org/2000/svg" width="288" height="288" enable-background="new 0 0 1024 1024" viewBox="0 0 1024 1280"><path fill="#fff" d="M455.6,144.7c16.5,0,33,1.1,49.4,3.3c-5.3-0.7-10.6-1.4-16-2.1c32.4,4.4,64,12.9,94.1,25.5 c-4.8-2-9.6-4-14.3-6c29.7,12.6,57.6,28.9,83.2,48.5c-4-3.1-8.1-6.3-12.1-9.4c25.1,19.5,47.7,42.1,67.2,67.3 c-3.1-4-6.3-8.1-9.4-12.1c19.5,25.4,35.7,53.2,48.2,82.7c-2-4.8-4-9.6-6-14.3c12.4,29.8,21,61,25.4,93c-0.7-5.3-1.4-10.6-2.1-16 c4.5,33.5,4.5,67.5,0,101.1c0.7-5.3,1.4-10.6,2.1-16c-4.4,32-12.9,63.2-25.4,93c2-4.8,4-9.6,6-14.3 c-12.5,29.5-28.7,57.3-48.2,82.7c3.1-4,6.3-8.1,9.4-12.1c-19.5,25.2-42,47.8-67.2,67.3c4-3.1,8.1-6.3,12.1-9.4 c-25.5,19.7-53.5,36-83.2,48.5c4.8-2,9.6-4,14.3-6c-30.1,12.6-61.7,21.1-94.1,25.5c5.3-0.7,10.6-1.4,16-2.1 c-33,4.3-66.4,4.3-99.4-0.1c5.3,0.7,10.6,1.4,16,2.1c-32.6-4.4-64.4-13.2-94.7-25.9c4.8,2,9.6,4,14.3,6 c-29.1-12.4-56.6-28.5-81.7-47.8c4,3.1,8.1,6.3,12.1,9.4c-25.2-19.5-47.9-42.2-67.4-67.4c3.1,4,6.3,8.1,9.4,12.1 c-19.3-25.1-35.4-52.6-47.8-81.7c2,4.8,4,9.6,6,14.3c-12.8-30.3-21.5-62.1-25.9-94.7c0.7,5.3,1.4,10.6,2.1,16 c-4.4-33.2-4.4-66.8,0-100c-0.7,5.3-1.4,10.6-2.1,16c4.4-32.6,13.2-64.4,25.9-94.7c-2,4.8-4,9.6-6,14.3 c12.4-29.1,28.5-56.6,47.8-81.7c-3.1,4-6.3,8.1-9.4,12.1c19.5-25.2,42.2-47.9,67.4-67.4c-4,3.1-8.1,6.3-12.1,9.4 c25.1-19.3,52.6-35.4,81.7-47.8c-4.8,2-9.6,4-14.3,6c30.3-12.8,62.1-21.5,94.7-25.9c-5.3,0.7-10.6,1.4-16,2.1 C422.2,145.8,438.9,144.7,455.6,144.7c15.4,0,31.5-6.7,42.4-17.6c10.4-10.4,18.2-27.5,17.6-42.4c-0.7-15.5-5.8-31.6-17.6-42.4 c-11.7-10.8-26.2-17.6-42.4-17.6c-23.8,0-47.2,2.7-70.7,6.2c-18.1,2.7-36,6.7-53.5,12c-38.1,11.6-75.5,28.5-108.9,50.3 c-66.5,43.5-122.7,105.1-156,177.7c-17.1,37.3-30.3,75.9-36,116.7c-3.3,23.6-5.9,47-5.8,70.8c0.2,23.5,2.9,46.7,6.5,69.9 c12.3,80,50.7,154.9,104,215.3c26.1,29.6,57.3,55.3,90.6,76.5c34,21.7,72,38.5,110.7,49.7c40.1,11.6,82.8,17.2,124.5,16.6 c50.9-0.7,102.9-10.1,150.2-29.3c24.8-10.1,49-21.2,71.8-35.5c20.2-12.7,39.4-27.3,57.5-42.9c32.5-28.1,60.6-62.2,83.1-98.8 c12.9-20.9,22.9-42.9,32.3-65.5c7.7-18.4,13.9-37.5,18.5-56.9c10.5-44.1,14.7-90.6,10.6-135.8c-2.2-24.8-5.9-49.7-12.1-73.8 c-6.2-24.2-15.2-47.2-25.1-70.1c-17.3-39.8-42-76-70.5-108.7c-28.4-32.5-63-60.7-99.9-83c-23.2-14-48-25.2-73.3-34.9 c-21.3-8.2-43.4-14.3-65.9-18.4c-27.2-4.9-54.9-8-82.6-8.1c-15.4,0-31.6,6.7-42.4,17.6c-10.4,10.4-18.2,27.5-17.6,42.4 c0.7,15.5,5.8,31.6,17.6,42.4C424.9,137.9,439.3,144.7,455.6,144.7z" class="color000 svgShape"/><path fill="#fff" d="M675.4,760.3c25.1,25.1,50.2,50.2,75.2,75.2c39.7,39.7,79.3,79.3,119,119c9.1,9.1,18.2,18.2,27.2,27.2 c10.9,10.9,27,17.6,42.4,17.6c14.7,0,32.3-6.5,42.4-17.6c10.5-11.4,18.3-26.4,17.6-42.4c-0.7-15.9-6.1-30.9-17.6-42.4 c-25.1-25.1-50.2-50.2-75.2-75.2c-39.7-39.7-79.3-79.3-119-119c-9.1-9.1-18.2-18.2-27.2-27.2c-10.9-10.9-27-17.6-42.4-17.6 c-14.7,0-32.3,6.5-42.4,17.6c-10.5,11.4-18.3,26.4-17.6,42.4C658.6,733.8,663.9,748.8,675.4,760.3L675.4,760.3z" class="color000 svgShape"/></svg></g></svg>